<?xml version="1.0" encoding="utf-8"?>
<svg width="346" height="141" viewBox="0 0 346 141" fill="none" xmlns="http://www.w3.org/2000/svg">
  <path d="M46.106 85.1012L28.4058 85.1012L28.4058 82.3058L33.1055 78.3507L33.1055 67.4498L16.1499 67.4498L16.1499 80.255L21.7041 81.8541L20.105 85.1012L2.40479 85.1012L2.40479 82.3058L7.10449 78.3507L7.10449 50.6529L1.55029 49.0538L3.19824 45.7945L20.8984 45.7945L20.8984 48.6021L16.1499 52.6061L16.1499 63.6046L33.1055 63.6046L33.1055 50.6529L27.5513 49.0538L29.1992 45.7945L46.8994 45.7945L46.8994 48.6021L42.1509 52.6061L42.1509 80.3038L47.7051 81.8541L46.106 85.1012ZM80.2559 85.15L68.8545 85.15L68.8545 80.8043L63.2026 85.2477Q62.2017 85.6505 60.7002 85.6505Q55.9028 85.6505 53.7788 83.3067Q51.6548 80.9508 51.6548 77.6549Q51.6548 75.7018 52.8511 73.8341Q54.0474 71.9542 56.3057 70.3551L68.8545 70.3551L68.8545 69.5006Q68.8545 66.754 67.353 65.4601Q65.8516 64.1539 63.3491 64.1539Q59.8457 64.1539 54.2061 66.9005L52.7046 64.044L59.6504 58.4532Q62.2017 57.6964 65.5952 57.6964Q71.1982 57.6964 74.2744 60.2477Q77.3506 62.7989 77.3506 67.6451L77.3506 80.1451L81.855 81.9029L80.2559 85.15ZM63.2515 78.9488Q65.8027 78.9488 68.8545 76.8492L68.8545 73.651L60.7979 73.651Q60.395 74.2491 60.2241 74.774Q60.0532 75.2989 60.0532 75.9459Q60.0532 77.2032 60.9199 78.0577Q61.7988 78.9 63.2515 78.9L63.2515 78.9488ZM103.85 40.9972Q105.596 40.9972 107.842 41.4488Q110.1 41.9005 111.101 42.4498L111.101 51.3976L107.952 51.3976Q106.755 49.2003 104.973 47.9308Q103.203 46.649 101.396 46.649Q99.5532 46.649 98.5767 48.1993Q97.6001 49.7496 97.6001 52.7037L97.6001 59.6983L105.999 59.6983L105.999 62.9942L97.6001 62.9942L97.6001 79.901L105.205 81.9029L103.606 85.15L84.6484 85.15L84.6484 82.3546L89.104 78.5948L89.104 62.9942L83.7451 62.9942L83.7451 59.6983L89.104 59.6983L89.104 55.8531Q89.104 51.898 91.3989 48.4801Q93.7061 45.0499 97.1729 43.0235Q100.652 40.9972 103.85 40.9972ZM123.55 78.8023Q123.55 77.8502 122.244 76.8736Q120.95 75.8971 118.253 74.3956Q115.604 72.8941 114.004 71.8199Q112.405 70.7457 111.221 69.3785Q110.049 67.9991 110.049 66.4Q110.049 64.6056 111.771 62.5548Q113.504 60.504 115.994 59.1002Q118.497 57.6964 120.596 57.6964Q123.148 57.6964 126.566 58.2823Q129.996 58.8561 131.546 59.5519L131.546 67.9015L128.397 67.9015Q127.054 65.399 125.174 64.0074Q123.294 62.6036 121.304 62.6036Q120.303 62.6036 119.693 63.1773Q119.095 63.7511 119.095 64.5445Q119.095 65.5943 120.425 66.5953Q121.756 67.5963 124.649 69.2442Q128.494 71.3561 130.569 73.0528Q132.645 74.7496 132.645 76.9469Q132.645 78.8023 130.875 80.8287Q129.105 82.8551 126.529 84.2589Q123.953 85.6505 121.805 85.6505Q119.046 85.6505 115.274 85.0768Q111.502 84.503 109.903 83.795L109.903 75.1524L113.052 75.1524Q114.554 77.8014 116.751 79.2784Q118.948 80.7555 121.097 80.7555Q122.195 80.7555 122.867 80.1817Q123.55 79.5958 123.55 78.8023ZM165.856 85.15L154.454 85.15L154.454 80.8043L148.803 85.2477Q147.802 85.6505 146.3 85.6505Q141.503 85.6505 139.379 83.3067Q137.255 80.9508 137.255 77.6549Q137.255 75.7018 138.451 73.8341Q139.647 71.9542 141.906 70.3551L154.454 70.3551L154.454 69.5006Q154.454 66.754 152.953 65.4601Q151.452 64.1539 148.949 64.1539Q145.446 64.1539 139.806 66.9005L138.305 64.044L145.25 58.4532Q147.802 57.6964 151.195 57.6964Q156.798 57.6964 159.874 60.2477Q162.951 62.7989 162.951 67.6451L162.951 80.1451L167.455 81.9029L165.856 85.15ZM148.851 78.9488Q151.403 78.9488 154.454 76.8492L154.454 73.651L146.398 73.651Q145.995 74.2491 145.824 74.774Q145.653 75.2989 145.653 75.9459Q145.653 77.2032 146.52 78.0577Q147.399 78.9 148.851 78.9L148.851 78.9488ZM203.754 81.9029L202.155 85.15L184.455 85.15L184.455 82.3546L189.154 78.3995L189.154 50.7018L183.6 49.1026L185.248 45.8556L202.948 45.8556L202.948 48.651L198.2 52.6549L198.2 80.3038L203.754 81.9029ZM224.994 85.15L214.399 85.15L200.153 65.4479L214.594 52.7525L208.747 49.1026L210.395 45.8556L225.397 45.8556L225.397 48.651L209.101 62.9942L221.198 79.3517L226.654 81.9029L224.994 85.15ZM261.198 85.15L249.845 85.15L249.845 69.1466Q249.845 66.8028 249.125 65.8263Q248.405 64.8497 246.598 64.8497Q243.949 64.8497 241.349 66.5465L241.349 80.4015L245.854 81.9029L244.206 85.15L228.397 85.15L228.397 82.3546L232.853 78.5948L232.853 51.2511L228.397 48.297L228.397 45.5016L238.2 41.4977L241.349 41.4977L241.349 62.6036L246.952 58.0992Q248.295 57.6964 250.004 57.6964Q253.8 57.6964 256.071 59.7716Q258.354 61.8468 258.354 65.399L258.354 80.4015L262.846 81.9029L261.198 85.15ZM294.456 85.15L283.055 85.15L283.055 80.8043L277.403 85.2477Q276.402 85.6505 274.9 85.6505Q270.103 85.6505 267.979 83.3067Q265.855 80.9508 265.855 77.6549Q265.855 75.7018 267.051 73.8341Q268.247 71.9542 270.506 70.3551L283.055 70.3551L283.055 69.5006Q283.055 66.754 281.553 65.4601Q280.052 64.1539 277.549 64.1539Q274.046 64.1539 268.406 66.9005L266.905 64.044L273.85 58.4532Q276.402 57.6964 279.795 57.6964Q285.398 57.6964 288.474 60.2477Q291.551 62.7989 291.551 67.6451L291.551 80.1451L296.055 81.9029L294.456 85.15ZM277.451 78.9488Q280.003 78.9488 283.055 76.8492L283.055 73.651L274.998 73.651Q274.595 74.2491 274.424 74.774Q274.253 75.2989 274.253 75.9459Q274.253 77.2032 275.12 78.0577Q275.999 78.9 277.451 78.9L277.451 78.9488ZM331.649 85.15L320.296 85.15L320.296 69.1466Q320.296 66.8028 319.576 65.8263Q318.856 64.8497 317.049 64.8497Q314.4 64.8497 311.8 66.5465L311.8 80.4015L316.305 81.9029L314.644 85.15L298.848 85.15L298.848 82.3546L303.304 78.5948L303.304 67.2545L298.848 64.4469L298.848 61.6515L309.249 57.2447L311.202 63.0553L317.403 58.0992Q318.746 57.6964 320.455 57.6964Q324.251 57.6964 326.522 59.7716Q328.805 61.8468 328.805 65.399L328.805 80.4015L333.297 81.9029L331.649 85.15Z" fill="#FFFFFF" transform="translate(6 2)" />
</svg>